Coordinates
version=1
nRows=19
nColumns=36
inDegrees=yes

Units are S.I. units (second, meters, Newtons, ...)
If the header above contains a line with 'inDegrees', this indicates whether rotational values are in degrees (yes) or radians (no).

endheader
time	pelvis_tilt	pelvis_list	pelvis_rotation	pelvis_tx	pelvis_ty	pelvis_tz	hip_flexion_r	hip_adduction_r	hip_rotation_r	knee_angle_r	knee_angle_r_beta	ankle_angle_r	subtalar_angle_r	mtp_angle_r	hip_flexion_l	hip_adduction_l	hip_rotation_l	knee_angle_l	knee_angle_l_beta	ankle_angle_l	subtalar_angle_l	mtp_angle_l	lumbar_extension	lumbar_bending	lumbar_rotation	arm_flex_r	arm_add_r	arm_rot_r	elbow_flex_r	pro_sup_r	arm_flex_l	arm_add_l	arm_rot_l	elbow_flex_l	pro_sup_l
      1.38000000	     -3.54961435	     -0.59928347	    -11.59857891	      1.13928224	      1.16255806	     -0.21704618	     21.42731423	      4.46455935	      4.79157229	     11.73068204	      0.20473903	      1.66400975	     -7.03845274	     -7.10866268	     -6.98416062	      3.98703055	    -10.50852517	      2.72390102	      0.04754104	      3.47640002	      2.78894994	     -7.10866268	    -14.63735865	    -16.20585120	     -1.94492509	    -15.36811505	     -7.80578185	     -6.83958402	     45.28709332	    109.07907635	      2.53268307	    -13.95158006	    -12.51712848	     50.09682646	    107.31407580
      1.39000000	     -3.51692824	     -0.54768378	    -11.47258496	      1.14767099	      1.16136486	     -0.21748180	     21.53742798	      4.53154811	      2.96924316	     10.17731499	      0.17762766	      2.57444500	     -4.14020316	     -7.12399066	     -7.51154718	      4.10370430	    -10.72521724	      2.64619004	      0.04618473	      3.83375861	      3.60250953	     -7.12399066	    -14.84215122	    -15.87657020	     -2.00975812	    -15.27823634	     -7.83353607	     -7.00490990	     45.43517174	    109.26088554	      2.35271223	    -13.92146329	    -12.21446205	     50.15028020	    107.33831689
      1.40000000	     -3.77759006	     -0.43029359	    -11.43786443	      1.15588880	      1.15976846	     -0.21765606	     21.83320449	      4.75940916	      2.20184112	      8.46788634	      0.14779250	      2.38591061	     -3.03952152	     -7.12749291	     -7.69579833	      4.23848624	    -10.73124175	      2.61135121	      0.04557668	      3.89772664	      3.84873590	     -7.12749291	    -14.66899100	    -15.58564106	     -1.99081533	    -15.17721521	     -7.83975913	     -7.08681453	     45.50944630	    109.30250462	      2.10927546	    -13.86446859	    -12.07223335	     50.17236578	    107.35724147
      1.41000000	     -3.74436831	     -0.34939976	    -11.35847215	      1.16447426	      1.15847818	     -0.21792988	     21.94700152	      4.85286351	      0.26523371	      7.15776528	      0.12492657	      3.36661550	      0.03123013	     -7.14517076	     -8.18621344	      4.36879384	    -11.25938225	      2.60545949	      0.04547385	      4.30992213	      4.86079514	     -7.14517076	    -14.83970693	    -15.29661538	     -1.94784831	    -15.11947108	     -7.86566420	     -7.22722452	     45.64904059	    109.53900114	      1.92559166	    -13.79840002	    -11.85647067	     50.18189038	    107.39759001
      1.42000000	     -3.82488633	     -0.27476011	    -11.31826151	      1.17303606	      1.15703957	     -0.21806837	     22.08276781	      5.06643726	     -1.01074221	      5.80332042	      0.10128705	      3.66035890	      2.08488386	     -7.16419190	     -8.51405561	      4.46454597	    -11.73493236	      2.70284426	      0.04717353	      4.64803900	      5.70733106	     -7.16419190	    -14.87143534	    -14.98052840	     -1.87940335	    -15.02829716	     -7.88853803	     -7.31715969	     45.72038819	    109.75939069	      1.69277494	    -13.71510290	    -11.69917569	     50.17823994	    107.45274885
      1.43000000	     -4.05702776	     -0.14107764	    -11.29966714	      1.18153290	      1.15536204	     -0.21814147	     22.31731781	      5.32493993	     -1.48705902	      4.47749869	      0.07814709	      3.51872470	      2.81543875	     -7.16638288	     -8.69509208	      4.61866075	    -11.75460547	      2.74734461	      0.04795021	      4.68490930	      5.84888398	     -7.16638288	    -14.72004993	    -14.69853967	     -1.78468394	    -14.94179020	     -7.90762578	     -7.34632801	     45.77311130	    109.78645617	      1.43422938	    -13.61762363	    -11.60391748	     50.16454387	    107.47056491
      1.44000000	     -3.95172598	     -0.13769212	    -11.20343488	      1.19045774	      1.15411638	     -0.21839648	     22.29576021	      5.52324105	     -3.14802633	      3.58042759	      0.06249025	      4.06741797	      5.52574602	     -7.17927772	     -9.22149515	      4.66659285	    -12.20173911	      2.89554107	      0.05053673	      5.06490944	      6.74891177	     -7.17927772	    -14.98733707	    -14.29246205	     -1.75732219	    -14.82292866	     -7.98923492	     -7.35889417	     45.85120791	    109.96645918	      1.19069175	    -13.49537741	    -11.43082480	     50.11782031	    107.54226633
      1.45000000	     -4.14640487	      0.08526471	    -11.22914479	      1.19922420	      1.15237638	     -0.21842350	     22.58130706	      5.69316222	     -3.42696920	      2.80470708	      0.04895137	      4.13550188	      5.82115315	     -7.18032432	     -9.38792155	      4.92504754	    -12.22714296	      3.02341224	      0.05276850	      5.08259657	      6.80512278	     -7.18032432	    -14.82712654	    -14.11265711	     -1.62893874	    -14.76581696	     -8.00406024	     -7.37130251	     45.91729365	    109.98302233	      0.90190900	    -13.38099128	    -11.38684275	     50.03616627	    107.54455260
      1.46000000	     -4.32113459	      0.17414143	    -11.15417873	      1.20810493	      1.15070594	     -0.21863861	     22.78538825	      5.91424188	     -3.70692220	      2.18297856	      0.03810016	      4.10581929	      6.79270894	     -7.18305088	     -9.52178931	      5.00723742	    -12.21596871	      3.32173903	      0.05797528	      5.20743067	      7.00168055	     -7.18305088	    -14.76571519	    -13.71416222	     -1.63587259	    -14.60745994	     -8.05214219	     -7.38870314	     46.03044869	    110.02791846	      0.58919869	    -13.24462582	    -11.29663737	     49.85423655	    107.54403954
      1.47000000	     -4.31625635	      0.28081426	    -11.04558965	      1.21749452	      1.14915955	     -0.21884924	     23.02339213	      5.97550739	     -5.12831917	      2.24378662	      0.03916146	      4.98474774	      9.11427521	     -7.19694227	     -9.78677429	      5.08857009	    -12.80812643	      3.77212612	      0.06583602	      5.64924329	      8.01049453	     -7.19694227	    -14.82199158	    -13.36773750	     -1.57179374	    -14.53251513	     -8.12675831	     -7.36243781	     46.10194634	    110.21556590	      0.34471232	    -13.10949612	    -11.17104829	     49.62372557	    107.50751000
      1.48000000	     -4.35281718	      0.46344077	    -11.00290913	      1.22696268	      1.14754127	     -0.21904636	     23.14885167	      6.04673336	     -5.09935398	      2.23232451	      0.03896141	      5.00397207	      9.12804704	     -7.19731244	    -10.09495586	      5.31550677	    -12.72577833	      4.00792465	      0.06995148	      5.61036606	      8.06041831	     -7.19731244	    -14.81135062	    -13.10879280	     -1.45777878	    -14.45077032	     -8.16705587	     -7.37906170	     46.13733329	    110.21922125	      0.02804546	    -12.91280188	    -11.11538815	     49.49528924	    107.49927387
      1.49000000	     -4.39399652	      0.55667681	    -10.85987347	      1.23662950	      1.14592548	     -0.21933425	     23.23270290	      6.13832653	     -4.85776595	      2.42525946	      0.04232876	      5.13859829	      9.16428027	     -7.19860830	    -10.33077945	      5.40106404	    -12.58232867	      4.44809619	      0.07763392	      5.63316518	      8.12376162	     -7.19860830	    -14.83427963	    -12.69152733	     -1.52050864	    -14.33977173	     -8.22823384	     -7.40560820	     46.26547210	    110.23692274	     -0.31735599	    -12.75260721	    -11.07582105	     49.18488140	    107.45977007
      1.50000000	     -4.41741147	      0.68794918	    -10.66819085	      1.24666410	      1.14429627	     -0.21975315	     23.27945184	      6.13602793	     -4.56495482	      2.81032955	      0.04904950	      5.36703214	      9.03493158	     -7.20047382	    -10.56634864	      5.51925243	    -12.46021653	      4.94051419	      0.08622824	      5.72164238	      8.19544506	     -7.20047382	    -14.82887564	    -12.29256034	     -1.56805998	    -14.29755073	     -8.29810529	     -7.42398610	     46.37213771	    110.26136454	     -0.67449688	    -12.54270764	    -11.02956749	     48.83187245	    107.40302762
      1.51000000	     -4.52665472	      0.84549438	    -10.45235900	      1.25689380	      1.14252429	     -0.22021407	     23.40793562	      6.09865278	     -3.96036349	      3.38709067	      0.05911588	      5.62316425	      8.48267374	     -7.20647435	    -10.65079971	      5.62110086	    -12.41144702	      5.57311833	      0.09726926	      5.89239284	      8.41449468	     -7.20647435	    -14.69026014	    -11.88296873	     -1.57351786	    -14.33133504	     -8.36688676	     -7.48013093	     46.46424250	    110.33051292	     -1.02262009	    -12.30282434	    -10.93015683	     48.41480153	    107.27572671
      1.52000000	     -4.53675699	      0.96153805	    -10.16233241	      1.26739958	      1.14091959	     -0.22083985	     23.37552107	      6.02942659	     -3.34493136	      4.03329339	      0.07039425	      5.73412225	      7.90976938	     -7.21075229	    -10.86483020	      5.69191096	    -12.21815184	      6.18036110	      0.10786765	      5.84930352	      8.50560561	     -7.21075229	    -14.67709178	    -11.41336314	     -1.67436956	    -14.32730446	     -8.43569375	     -7.58757891	     46.52022268	    110.37362077	     -1.43647533	    -12.06828565	    -10.82631794	     48.06777233	    107.19324722
      1.53000000	     -4.59495568	      1.08588210	     -9.80332080	      1.27812066	      1.13929073	     -0.22157395	     23.34932668	      5.91908670	     -2.67578566	      4.70045844	      0.08203848	      5.72834856	      7.15315924	     -7.21491200	    -11.00321386	      5.74541590	    -11.90892547	      6.84911491	      0.11953961	      5.74726818	      8.49298792	     -7.21491200	    -14.59531213	    -10.91734386	     -1.80591895	    -14.35240857	     -8.48006600	     -7.71598731	     46.56347235	    110.41580369	     -1.87875975	    -11.80437518	    -10.71864510	     47.69486236	    107.12162015
      1.54000000	     -4.72501006	      1.21242113	     -9.42620213	      1.28896765	      1.13765750	     -0.22233477	     23.28627730	      5.83498930	     -1.53171610	      5.20411188	      0.09082889	      5.08405114	      5.48911331	     -7.22799937	    -11.05220172	      5.79397474	    -11.41368670	      7.54501810	      0.13168541	      5.48982186	      8.23994530	     -7.22799937	    -14.41155676	    -10.39051656	     -1.88513007	    -14.42205802	     -8.50347818	     -7.95703218	     46.55989939	    110.54222000	     -2.29492302	    -11.54364945	    -10.49756978	     47.27635561	    106.99006044
      1.55000000	     -4.79494984	      1.26876357	     -8.92899019	      1.30007246	      1.13624022	     -0.22331092	     23.19597525	      5.68236623	     -1.25495832	      5.80708765	      0.10135280	      4.77103479	      4.89781909	     -7.23176201	    -11.11824687	      5.73331148	    -10.97873517	      8.36276167	      0.14595773	      5.23340384	      8.13800348	     -7.23176201	    -14.31288993	     -9.76224104	     -2.10759300	    -14.46351297	     -8.56883337	     -8.11854771	     46.58069022	    110.55804223	     -2.76997864	    -11.24154643	    -10.39337174	     46.87456307	    106.94267086
      1.56000000	     -4.98979423	      1.32484331	     -8.43598800	      1.31119012	      1.13486999	     -0.22422317	     23.15992499	      5.56533058	     -0.59658308	      6.24109865	      0.10892772	      3.72435649	      3.42006295	     -7.24118226	    -10.99950023	      5.64830795	    -10.42433507	      9.26242174	      0.16165976	      4.88495213	      7.83829549	     -7.24118226	    -14.05455265	     -9.11817332	     -2.22445789	    -14.53914610	     -8.57870998	     -8.39885527	     46.53853955	    110.57751387	     -3.18350501	    -10.94770871	    -10.19163385	     46.38155212	    106.87610414
